<svg xmlns="http://www.w3.org/2000/svg" x="0px" y="0px" width="96" height="96" viewBox="0 0 172 172" style="fill: rgb(0, 0, 0);"><defs><linearGradient x1="129" y1="42.32813" x2="129" y2="54.42188" gradientUnits="userSpaceOnUse" id="color-1_43611_gr1"><stop offset="0" stop-color="#888888"></stop><stop offset="1" stop-color="#888888"></stop></linearGradient><linearGradient x1="107.5" y1="42.32813" x2="107.5" y2="54.42188" gradientUnits="userSpaceOnUse" id="color-2_43611_gr2"><stop offset="0" stop-color="#888888"></stop><stop offset="1" stop-color="#888888"></stop></linearGradient><linearGradient x1="129" y1="79.61719" x2="129" y2="92.40163" gradientUnits="userSpaceOnUse" id="color-3_43611_gr3"><stop offset="0" stop-color="#888888"></stop><stop offset="1" stop-color="#888888"></stop></linearGradient><linearGradient x1="107.5" y1="79.61719" x2="107.5" y2="92.40163" gradientUnits="userSpaceOnUse" id="color-4_43611_gr4"><stop offset="0" stop-color="#888888"></stop><stop offset="1" stop-color="#888888"></stop></linearGradient><linearGradient x1="129" y1="117.24219" x2="129" y2="130.34913" gradientUnits="userSpaceOnUse" id="color-5_43611_gr5"><stop offset="0" stop-color="#888888"></stop><stop offset="1" stop-color="#888888"></stop></linearGradient><linearGradient x1="107.5" y1="117.24219" x2="107.5" y2="130.34913" gradientUnits="userSpaceOnUse" id="color-6_43611_gr6"><stop offset="0" stop-color="#888888"></stop><stop offset="1" stop-color="#888888"></stop></linearGradient><linearGradient x1="86" y1="18.36369" x2="86" y2="154.50975" gradientUnits="userSpaceOnUse" id="color-7_43611_gr7"><stop offset="0" stop-color="#505050"></stop><stop offset="1" stop-color="#505050"></stop></linearGradient><linearGradient x1="48.375" y1="18.36369" x2="48.375" y2="154.50975" gradientUnits="userSpaceOnUse" id="color-8_43611_gr8"><stop offset="0" stop-color="#505050"></stop><stop offset="1" stop-color="#505050"></stop></linearGradient><linearGradient x1="86" y1="18.36369" x2="86" y2="154.50975" gradientUnits="userSpaceOnUse" id="color-9_43611_gr9"><stop offset="0" stop-color="#505050"></stop><stop offset="1" stop-color="#505050"></stop></linearGradient><linearGradient x1="67.1875" y1="18.36369" x2="67.1875" y2="154.50975" gradientUnits="userSpaceOnUse" id="color-10_43611_gr10"><stop offset="0" stop-color="#505050"></stop><stop offset="1" stop-color="#505050"></stop></linearGradient><linearGradient x1="48.375" y1="18.36369" x2="48.375" y2="154.50975" gradientUnits="userSpaceOnUse" id="color-11_43611_gr11"><stop offset="0" stop-color="#505050"></stop><stop offset="1" stop-color="#505050"></stop></linearGradient><linearGradient x1="86" y1="18.36369" x2="86" y2="154.50975" gradientUnits="userSpaceOnUse" id="color-12_43611_gr12"><stop offset="0" stop-color="#505050"></stop><stop offset="1" stop-color="#505050"></stop></linearGradient><linearGradient x1="67.1875" y1="18.36369" x2="67.1875" y2="154.50975" gradientUnits="userSpaceOnUse" id="color-13_43611_gr13"><stop offset="0" stop-color="#505050"></stop><stop offset="1" stop-color="#505050"></stop></linearGradient><linearGradient x1="48.375" y1="18.36369" x2="48.375" y2="154.50975" gradientUnits="userSpaceOnUse" id="color-14_43611_gr14"><stop offset="0" stop-color="#505050"></stop><stop offset="1" stop-color="#505050"></stop></linearGradient><linearGradient x1="86" y1="18.36369" x2="86" y2="154.50975" gradientUnits="userSpaceOnUse" id="color-15_43611_gr15"><stop offset="0" stop-color="#505050"></stop><stop offset="1" stop-color="#505050"></stop></linearGradient><linearGradient x1="67.1875" y1="18.36369" x2="67.1875" y2="154.50975" gradientUnits="userSpaceOnUse" id="color-16_43611_gr16"><stop offset="0" stop-color="#505050"></stop><stop offset="1" stop-color="#505050"></stop></linearGradient></defs><g fill="none" fill-rule="nonzero" stroke="none" stroke-width="1" stroke-linecap="butt" stroke-linejoin="miter" stroke-miterlimit="10" stroke-dasharray="" stroke-dashoffset="0" font-family="none" font-weight="none" font-size="none" text-anchor="none" style="mix-blend-mode: normal;"><path d="M0,172v-172h172v172z" fill="none"></path><g><path d="M129,43c-2.96853,0 -5.375,2.40647 -5.375,5.375c0,2.96853 2.40647,5.375 5.375,5.375c2.96853,0 5.375,-2.40647 5.375,-5.375c0,-2.96853 -2.40647,-5.375 -5.375,-5.375z" fill="#23C4ED"></path><path d="M107.5,43c-2.96853,0 -5.375,2.40647 -5.375,5.375c0,2.96853 2.40647,5.375 5.375,5.375c2.96853,0 5.375,-2.40647 5.375,-5.375c0,-2.96853 -2.40647,-5.375 -5.375,-5.375z" fill="#23C4ED"></path><path d="M129,80.625c-2.96853,0 -5.375,2.40647 -5.375,5.375c0,2.96853 2.40647,5.375 5.375,5.375c2.96853,0 5.375,-2.40647 5.375,-5.375c0,-2.96853 -2.40647,-5.375 -5.375,-5.375z" fill="#23C4ED"></path><path d="M107.5,80.625c-2.96853,0 -5.375,2.40647 -5.375,5.375c0,2.96853 2.40647,5.375 5.375,5.375c2.96853,0 5.375,-2.40647 5.375,-5.375c0,-2.96853 -2.40647,-5.375 -5.375,-5.375z" fill="#23C4ED"></path><path d="M129,118.25c-2.96853,0 -5.375,2.40647 -5.375,5.375c0,2.96853 2.40647,5.375 5.375,5.375c2.96853,0 5.375,-2.40647 5.375,-5.375c0,-2.96853 -2.40647,-5.375 -5.375,-5.375z" fill="#23C4ED"></path><path d="M107.5,118.25c-2.96853,0 -5.375,2.40647 -5.375,5.375c0,2.96853 2.40647,5.375 5.375,5.375c2.96853,0 5.375,-2.40647 5.375,-5.375c0,-2.96853 -2.40647,-5.375 -5.375,-5.375z" fill="#23C4ED"></path><path d="M147.8125,34.9375c0,-4.44513 -3.61738,-8.0625 -8.0625,-8.0625h-2.6875v-2.6875c0,-4.44513 -3.61738,-8.0625 -8.0625,-8.0625h-86c-4.44512,0 -8.0625,3.61737 -8.0625,8.0625v2.6875h-2.6875c-4.44513,0 -8.0625,3.61737 -8.0625,8.0625v26.875c0,2.07206 0.80894,3.94525 2.09625,5.375c-1.28731,1.42975 -2.09625,3.30294 -2.09625,5.375v26.875c0,2.07206 0.80894,3.94525 2.09625,5.375c-1.28731,1.42975 -2.09625,3.30294 -2.09625,5.375v26.875c0,4.44512 3.61737,8.0625 8.0625,8.0625h2.6875v2.6875c0,4.44512 3.61738,8.0625 8.0625,8.0625h21.5c4.44513,0 8.0625,-3.61738 8.0625,-8.0625v-2.6875h26.875v2.6875c0,4.44512 3.61738,8.0625 8.0625,8.0625h21.5c4.44512,0 8.0625,-3.61738 8.0625,-8.0625v-2.6875h2.6875c4.44512,0 8.0625,-3.61738 8.0625,-8.0625v-26.875c0,-2.07206 -0.80894,-3.94525 -2.09625,-5.375c1.29,-1.42975 2.09625,-3.30294 2.09625,-5.375v-26.875c0,-2.07206 -0.80894,-3.94525 -2.09625,-5.375c1.29,-1.42975 2.09625,-3.30294 2.09625,-5.375zM40.3125,24.1875c0,-1.48081 1.204,-2.6875 2.6875,-2.6875h86c1.4835,0 2.6875,1.20669 2.6875,2.6875v2.6875h-91.375zM29.5625,34.9375c0,-1.48081 1.204,-2.6875 2.6875,-2.6875h107.5c1.4835,0 2.6875,1.20669 2.6875,2.6875v26.875c0,1.48081 -1.204,2.6875 -2.6875,2.6875h-48.8695c-1.11263,-3.12019 -4.06888,-5.375 -7.568,-5.375h-32.25c-3.49912,0 -6.45538,2.25481 -7.568,5.375h-11.2445c-1.4835,0 -2.6875,-1.20669 -2.6875,-2.6875zM142.4375,72.5625v26.875c0,1.48081 -1.204,2.6875 -2.6875,2.6875h-48.8695c-1.11263,-3.12019 -4.06888,-5.375 -7.568,-5.375h-32.25c-3.49912,0 -6.45538,2.25481 -7.568,5.375h-11.2445c-1.4835,0 -2.6875,-1.20669 -2.6875,-2.6875v-26.875c0,-1.48081 1.204,-2.6875 2.6875,-2.6875h107.5c1.4835,0 2.6875,1.20669 2.6875,2.6875zM67.1875,147.8125c0,1.48081 -1.204,2.6875 -2.6875,2.6875h-21.5c-1.4835,0 -2.6875,-1.20669 -2.6875,-2.6875v-2.6875h26.875zM131.6875,147.8125c0,1.48081 -1.204,2.6875 -2.6875,2.6875h-21.5c-1.4835,0 -2.6875,-1.20669 -2.6875,-2.6875v-2.6875h26.875zM142.4375,137.0625c0,1.48081 -1.204,2.6875 -2.6875,2.6875h-48.8695c-1.11263,-3.12019 -4.06888,-5.375 -7.568,-5.375h-32.25c-3.49912,0 -6.45538,2.25481 -7.568,5.375h-11.2445c-1.4835,0 -2.6875,-1.20669 -2.6875,-2.6875v-26.875c0,-1.48081 1.204,-2.6875 2.6875,-2.6875h107.5c1.4835,0 2.6875,1.20669 2.6875,2.6875z" fill="#23C4ED"></path><path d="M43,83.3125h10.75v5.375h-10.75z" fill="#23C4ED"></path><path d="M80.625,83.3125h10.75v5.375h-10.75z" fill="#23C4ED"></path><path d="M59.125,83.3125h16.125v5.375h-16.125z" fill="#23C4ED0)"></path><path d="M43,120.9375h10.75v5.375h-10.75z" fill="#23C4ED1)"></path><path d="M80.625,120.9375h10.75v5.375h-10.75z" fill="#23C4ED2)"></path><path d="M59.125,120.9375h16.125v5.375h-16.125z" fill="#23C4ED3)"></path><path d="M43,45.6875h10.75v5.375h-10.75z" fill="#23C4ED4)"></path><path d="M80.625,45.6875h10.75v5.375h-10.75z" fill="#23C4ED5)"></path><path d="M59.125,45.6875h16.125v5.375h-16.125z" fill="#23C4ED6)"></path></g></g></svg>