<svg xmlns="http://www.w3.org/2000/svg" x="0px" y="0px" width="90" height="90" viewBox="0 0 172 172" style="fill: rgb(0, 0, 0);"><g fill="none" fill-rule="nonzero" stroke="none" stroke-width="1" stroke-linecap="butt" stroke-linejoin="miter" stroke-miterlimit="10" stroke-dasharray="" stroke-dashoffset="0" font-family="none" font-weight="none" font-size="none" text-anchor="none" style="mix-blend-mode: normal;"><path d="M0,172v-172h172v172z" fill="none"></path><g fill="#23C4ED"><path d="M20.64,0c-11.35469,0 -20.64,9.28531 -20.64,20.64c0,11.35469 9.28531,20.64 20.64,20.64c4.44781,0 8.55969,-1.45125 11.9325,-3.87l26.7675,26.875c-4.85094,5.92594 -7.74,13.47781 -7.74,21.715c0,6.81281 2.05594,13.14188 5.4825,18.49l-22.575,17.845c-3.66844,-3.3325 -8.54625,-5.375 -13.8675,-5.375c-11.35469,0 -20.64,9.28531 -20.64,20.64c0,11.35469 9.28531,20.64 20.64,20.64c11.35469,0 20.64,-9.28531 20.64,-20.64c0,-3.60125 -0.94062,-6.93375 -2.58,-9.89l22.6825,-17.845c6.26188,6.45 14.9425,10.535 24.6175,10.535c4.56875,0 8.90906,-0.84656 12.9,-2.4725l9.03,17.0925c-4.93156,3.77594 -8.17,9.675 -8.17,16.34c0,11.35469 9.28531,20.64 20.64,20.64c11.35469,0 20.64,-9.28531 20.64,-20.64c0,-11.35469 -9.28531,-20.64 -20.64,-20.64c-2.24406,0 -4.42094,0.40313 -6.45,1.075l-9.03,-17.0925c6.49031,-4.28656 11.44875,-10.72312 13.8675,-18.275l11.9325,2.4725c-0.01344,0.28219 0,0.57781 0,0.86c0,11.35469 9.28531,20.64 20.64,20.64c11.35469,0 20.64,-9.28531 20.64,-20.64c0,-11.35469 -9.28531,-20.64 -20.64,-20.64c-8.72094,0 -16.2325,5.42875 -19.2425,13.115l-11.9325,-2.58c0.12094,-1.19594 0.215,-2.43219 0.215,-3.655c0,-13.53156 -7.94156,-25.24906 -19.35,-30.8525l5.2675,-14.19c1.20938,0.215 2.49938,0.3225 3.7625,0.3225c11.35469,0 20.64,-9.28531 20.64,-20.64c0,-11.35469 -9.28531,-20.64 -20.64,-20.64c-11.35469,0 -20.64,9.28531 -20.64,20.64c0,7.61906 4.24625,14.27063 10.4275,17.845l-5.2675,14.2975c-2.76812,-0.72562 -5.61687,-1.1825 -8.6,-1.1825c-8.23719,0 -15.78906,2.88906 -21.715,7.74l-26.875,-26.7675c2.41875,-3.37281 3.87,-7.48469 3.87,-11.9325c0,-11.35469 -9.28531,-20.64 -20.64,-20.64zM20.64,6.88c7.64594,0 13.76,6.11406 13.76,13.76c0,7.64594 -6.11406,13.76 -13.76,13.76c-7.64594,0 -13.76,-6.11406 -13.76,-13.76c0,-7.64594 6.11406,-13.76 13.76,-13.76zM110.08,6.88c7.64594,0 13.76,6.11406 13.76,13.76c0,7.64594 -6.11406,13.76 -13.76,13.76c-7.64594,0 -13.76,-6.11406 -13.76,-13.76c0,-7.64594 6.11406,-13.76 13.76,-13.76zM86,58.48c15.25156,0 27.52,12.29531 27.52,27.52c0,15.25156 -12.26844,27.52 -27.52,27.52c-15.23812,0 -27.52,-12.26844 -27.52,-27.52c0,-7.40406 2.9025,-14.0825 7.6325,-19.0275c0.28219,-0.215 0.5375,-0.47031 0.7525,-0.7525c4.945,-4.78375 11.67719,-7.74 19.135,-7.74zM151.36,86c7.64594,0 13.76,6.11406 13.76,13.76c0,7.64594 -6.11406,13.76 -13.76,13.76c-7.64594,0 -13.76,-6.11406 -13.76,-13.76c0,-7.64594 6.11406,-13.76 13.76,-13.76zM20.64,123.84c7.64594,0 13.76,6.11406 13.76,13.76c0,7.64594 -6.11406,13.76 -13.76,13.76c-7.64594,0 -13.76,-6.11406 -13.76,-13.76c0,-7.64594 6.11406,-13.76 13.76,-13.76zM120.4,137.6c7.64594,0 13.76,6.11406 13.76,13.76c0,7.64594 -6.11406,13.76 -13.76,13.76c-7.64594,0 -13.76,-6.11406 -13.76,-13.76c0,-5.21375 2.84875,-9.70187 7.095,-12.04c0.1075,-0.02687 0.215,-0.06719 0.3225,-0.1075c0.04031,-0.02687 0.06719,-0.08062 0.1075,-0.1075c0.06719,-0.02687 0.14781,-0.06719 0.215,-0.1075c1.81406,-0.87344 3.85656,-1.3975 6.02,-1.3975z"></path></g></g></svg>