<svg xmlns="http://www.w3.org/2000/svg" x="0px" y="0px" width="100" height="100" viewBox="0 0 172 172" style="fill: rgb(0,0,0);"><defs><linearGradient x1="43" y1="30.45744" x2="43" y2="45.408" gradientUnits="userSpaceOnUse" id="color-1_48250_gr1"><stop offset="0" stop-color="#888888"></stop><stop offset="1" stop-color="#888888"></stop></linearGradient><linearGradient x1="59.125" y1="30.45744" x2="59.125" y2="45.408" gradientUnits="userSpaceOnUse" id="color-2_48250_gr2"><stop offset="0" stop-color="#888888"></stop><stop offset="1" stop-color="#888888"></stop></linearGradient><linearGradient x1="75.25" y1="30.45744" x2="75.25" y2="45.408" gradientUnits="userSpaceOnUse" id="color-3_48250_gr3"><stop offset="0" stop-color="#888888"></stop><stop offset="1" stop-color="#888888"></stop></linearGradient><linearGradient x1="86" y1="21.5" x2="86" y2="155.46381" gradientUnits="userSpaceOnUse" id="color-4_48250_gr4"><stop offset="0" stop-color="#505050"></stop><stop offset="1" stop-color="#505050"></stop></linearGradient><linearGradient x1="53.535" y1="21.5" x2="53.535" y2="155.46381" gradientUnits="userSpaceOnUse" id="color-5_48250_gr5"><stop offset="0" stop-color="#505050"></stop><stop offset="1" stop-color="#505050"></stop></linearGradient><linearGradient x1="119.18794" y1="21.5" x2="119.18794" y2="155.46381" gradientUnits="userSpaceOnUse" id="color-6_48250_gr6"><stop offset="0" stop-color="#505050"></stop><stop offset="1" stop-color="#505050"></stop></linearGradient><linearGradient x1="87.34375" y1="21.5" x2="87.34375" y2="155.46381" gradientUnits="userSpaceOnUse" id="color-7_48250_gr7"><stop offset="0" stop-color="#505050"></stop><stop offset="1" stop-color="#505050"></stop></linearGradient></defs><g fill="none" fill-rule="nonzero" stroke="none" stroke-width="1" stroke-linecap="butt" stroke-linejoin="miter" stroke-miterlimit="10" stroke-dasharray="" stroke-dashoffset="0" font-family="none" font-weight="none" font-size="none" text-anchor="none" style="mix-blend-mode: normal;"><path d="M0,172v-172h172v172z" fill="none"></path><g><path d="M43,43c-2.96431,0 -5.375,-2.41069 -5.375,-5.375c0,-2.96431 2.41069,-5.375 5.375,-5.375c2.96431,0 5.375,2.41069 5.375,5.375c0,2.96431 -2.41069,5.375 -5.375,5.375zM43,37.62231v0.00269z" fill="#23C4ED"></path><path d="M59.125,43c-2.96431,0 -5.375,-2.41069 -5.375,-5.375c0,-2.96431 2.41069,-5.375 5.375,-5.375c2.96431,0 5.375,2.41069 5.375,5.375c0,2.96431 -2.41069,5.375 -5.375,5.375zM59.125,37.62231v0.00269z" fill="#23C4ED"></path><path d="M75.25,43c-2.96431,0 -5.375,-2.41069 -5.375,-5.375c0,-2.96431 2.41069,-5.375 5.375,-5.375c2.96431,0 5.375,2.41069 5.375,5.375c0,2.96431 -2.41069,5.375 -5.375,5.375zM75.25,37.62231v0.00269z" fill="#23C4ED"></path><path d="M137.0625,21.5h-102.125c-7.40944,0 -13.4375,6.02806 -13.4375,13.4375v102.125c0,7.40944 6.02806,13.4375 13.4375,13.4375h102.125c7.40944,0 13.4375,-6.02806 13.4375,-13.4375v-102.125c0,-7.40944 -6.02806,-13.4375 -13.4375,-13.4375zM34.9375,26.875h102.125c4.44512,0 8.0625,3.61737 8.0625,8.0625v13.4375h-118.25v-13.4375c0,-4.44513 3.61737,-8.0625 8.0625,-8.0625zM137.0625,145.125h-102.125c-4.44513,0 -8.0625,-3.61738 -8.0625,-8.0625v-83.3125h118.25v83.3125c0,4.44513 -3.61737,8.0625 -8.0625,8.0625z" fill="#23C4ED"></path><path d="M62.27206,75.9165l-19.18069,16.78344c-1.16906,1.02125 -1.83825,2.49938 -1.83825,4.05275c0,1.55338 0.66919,3.02881 1.83825,4.05275l19.18069,16.78075l3.53944,-4.04469l-19.18069,-16.79956l19.18069,-16.78075z" fill="#23C4ED"></path><path d="M111.60919,76.01594l-3.75444,3.84581l17.29138,16.899l-17.29138,16.88019l3.75444,3.84581l17.29138,-16.88019c1.04544,-1.02125 1.62325,-2.39187 1.62325,-3.85388c0,-1.462 -0.57781,-2.83263 -1.62325,-3.85387z" fill="#23C4ED"></path><path d="M72.72106,130.77644l5.05787,1.82212l24.1875,-67.1875l-5.05788,-1.82212z" fill="#23C4ED"></path></g></g></svg>