<?xml version="1.0" encoding="UTF-8"?>
<svg xmlns="http://www.w3.org/2000/svg" xmlns:xlink="http://www.w3.org/1999/xlink" viewBox="0 0 96 96" width="96px" height="96px">
<g id="surface20597708">
<path style=" stroke:none;fill-rule:nonzero;fill:#1FAA59;fill-opacity:1;" d="M 84 34.601562 C 84 75.601562 48 88 48 88 C 48 88 12 75.601562 12 34.601562 C 12 29.601562 12.398438 25.398438 12.800781 22 C 13.398438 17 16.800781 13 21.601562 11.800781 C 27.800781 10 37.601562 8 48 8 C 58.398438 8 68.199219 10 74.601562 11.800781 C 79.398438 13 82.800781 17.199219 83.398438 22 C 83.601562 25.398438 84 29.800781 84 34.601562 Z M 84 34.601562 "/>
<path style=" stroke:none;fill-rule:nonzero;fill:#004d00;fill-opacity:1;" d="M 48 14 C 57.800781 14 67 16 73 17.601562 C 75.398438 18.199219 77 20.199219 77.398438 22.800781 C 77.800781 26.601562 78 30.601562 78 34.601562 C 78 65.800781 55 78.398438 48 81.398438 C 41 78.199219 18 65.601562 18 34.601562 C 18 30.601562 18.199219 26.601562 18.601562 22.800781 C 18.800781 20.199219 20.601562 18.199219 23 17.601562 C 29 16 38.199219 14 48 14 M 48 8 C 37.601562 8 27.800781 10 21.398438 11.800781 C 16.800781 13 13.199219 17.199219 12.800781 22 C 12.398438 25.398438 12 29.800781 12 34.601562 C 12 75.601562 48 88 48 88 C 48 88 84 75.601562 84 34.601562 C 84 29.601562 83.601562 25.398438 83.199219 22 C 82.601562 17 79.199219 13 74.398438 11.800781 C 68.199219 10 58.398438 8 48 8 Z M 48 8 "/>
<path style=" stroke:none;fill-rule:nonzero;fill:#004d00;fill-opacity:1;" d="M 46 56 L 50 56 L 50 72 L 46 72 Z M 46 56 "/>
<path style=" stroke:none;fill-rule:nonzero;fill:#009900;fill-opacity:1;" d="M 48 20 C 48 20 36 30 36 46 C 36 56.398438 42.601562 63 46 66 L 48 60 L 50 66 C 53.398438 63 60 56.398438 60 46 C 60 30 48 20 48 20 Z M 48 20 "/>
<path style=" stroke:none;fill-rule:nonzero;fill:#006600;fill-opacity:1;" d="M 48 20 C 48 20 36 30 36 46 C 36 56.398438 42.601562 63 46 66 L 48 60 Z M 48 20 "/>
</g>
</svg>
