<?xml version="1.0" encoding="UTF-8"?>
<svg xmlns="http://www.w3.org/2000/svg" xmlns:xlink="http://www.w3.org/1999/xlink" viewBox="0 0 100 100" width="100px" height="100px">
<g id="surface20596067">
<path style=" stroke:none;fill-rule:nonzero;fill:#8D3DAF;fill-opacity:0.9;" d="M 48 4 C 33.664062 4 22 20.585938 22 40.972656 C 22 51.503906 25.128906 60.988281 30.121094 67.71875 C 29.742188 69.765625 30.289062 71.871094 31.617188 73.472656 C 32.949219 75.074219 34.917969 76 37 76 C 40.867188 76 44 72.867188 44 69 C 44 65.132812 40.867188 62 37 62 C 36.617188 62.003906 36.238281 62.035156 35.863281 62.101562 C 32.289062 56.773438 30 49.222656 30 40.972656 C 30 25.265625 38.242188 12 48 12 C 56.238281 12 63.378906 21.476562 65.40625 33.875 C 68.25 34.691406 71.082031 35.792969 73.859375 37.128906 C 72.503906 18.539062 61.425781 4 48 4 Z M 45 34 C 41.132812 34 38 37.132812 38 41 C 38 44.867188 41.132812 48 45 48 C 47.667969 48 50.105469 46.480469 51.28125 44.082031 C 57.78125 43.675781 65.292969 45.679688 72.226562 49.835938 C 85.945312 58.0625 93.40625 72.445312 88.515625 81.246094 C 86.90625 84.136719 84.011719 86.21875 80.136719 87.253906 C 74.558594 88.746094 67.71875 87.988281 60.980469 85.277344 C 58.84375 87.265625 56.492188 89.132812 53.925781 90.847656 C 60.582031 94.210938 67.621094 95.992188 74.125 95.992188 C 76.945312 95.992188 79.667969 95.660156 82.207031 94.980469 C 88.222656 93.371094 92.820312 89.964844 95.507812 85.132812 C 102.675781 72.234375 94.253906 53.714844 76.339844 42.976562 C 67.816406 37.863281 58.371094 35.507812 50.070312 36.1875 C 48.75 34.792969 46.917969 34.003906 45 34 Z M 18.320312 46.648438 C 4.160156 57.589844 -1.914062 73.597656 4.496094 85.132812 C 7.183594 89.964844 11.78125 93.371094 17.796875 94.980469 C 20.339844 95.660156 23.054688 95.992188 25.878906 95.992188 C 33.480469 95.992188 41.820312 93.578125 49.414062 89.027344 C 57.910156 83.933594 64.191406 77.085938 67.753906 69.925781 C 71.257812 69.542969 74 66.601562 74 63 C 74 59.140625 70.859375 56 67 56 C 63.140625 56 60 59.140625 60 63 C 60 64.082031 60.265625 65.09375 60.703125 66.007812 C 57.816406 71.957031 52.425781 77.890625 45.300781 82.164062 C 36.707031 87.316406 27.199219 89.21875 19.863281 87.253906 C 15.992188 86.21875 13.097656 84.136719 11.488281 81.246094 C 7.621094 74.285156 11.492188 63.847656 20.058594 55.710938 C 19.238281 52.832031 18.648438 49.796875 18.320312 46.648438 Z M 18.320312 46.648438 "/>
</g>
</svg>